<svg width="150" height="33" viewBox="0 0 150 33" fill="none" xmlns="http://www.w3.org/2000/svg">
    <path
        d="M43.12 16.573c-1.639-.464-2.48-1.266-2.48-2.38 0-1.38 1.262-2.354 2.994-2.354 1.791 0 2.925.952 2.992 2.48h4.37c-.071-3.864-2.994-6.457-7.31-6.457-4.316 0-7.45 2.709-7.45 6.448 0 2.963 1.884 5.04 5.59 6.194l2.678.746c1.984.569 2.805 1.344 2.759 2.647-.03 1.501-1.344 2.48-3.373 2.48-2.208 0-3.312-1.311-3.434-2.655h-4.429c.08 3.863 3.284 6.518 7.854 6.518 3.696 0 7.726-1.984 7.79-6.32.091-3.155-1.906-5.356-5.951-6.515l-2.6-.832ZM60.282 14.92a7.633 7.633 0 0 0 0 15.261c1.225 0 3.36-.595 4.227-1.918l.276-.42v2.04h4.123V15.237h-4.11v1.984l-.276-.39c-1.304-1.857-3.946-1.912-4.24-1.912Zm.44 11.335a3.701 3.701 0 1 1 0-7.393 3.695 3.695 0 0 1 3.47 5.125 3.697 3.697 0 0 1-3.47 2.268ZM75.474 15.241h-4.12v14.657h4.12V15.24ZM82.099 8.15h-4.14v21.738h4.14V8.15ZM93.36 8.128h-8.909v21.764h4.417v-7.616h4.501c5.244 0 7.118-3.8 7.118-7.06-.01-4.894-3.584-7.088-7.127-7.088Zm-.226 10.343h-4.275v-6.515h4.418c1.932 0 2.806 1.901 2.806 3.25a3.092 3.092 0 0 1-2.935 3.265h-.014ZM107.78 14.92a7.62 7.62 0 0 0-7.039 4.705 7.617 7.617 0 1 0 14.654 2.898 7.346 7.346 0 0 0-4.661-7.1 7.347 7.347 0 0 0-2.954-.502Zm0 11.176a3.562 3.562 0 0 1-3.518-4.23 3.556 3.556 0 0 1 2.776-2.815 3.558 3.558 0 0 1 4.279 3.458 3.446 3.446 0 0 1-.901 2.475 3.454 3.454 0 0 1-2.387 1.112h-.249ZM121.086 15.241h-4.123v14.657h4.123V15.24ZM127.882 17.337l-.276.525v-2.625h-4.167v14.65h4.14v-7.76c0-2.083 1.01-3.19 2.901-3.19 1.703 0 2.739 1.197 2.739 3.118v7.826h4.152v-8.782c.019-3.988-1.871-6.195-5.304-6.195a4.82 4.82 0 0 0-4.191 2.425l.006.008ZM73.416 13.144a2.572 2.572 0 1 0-2.566-2.58v.01c-.001.337.066.671.198.982a2.572 2.572 0 0 0 2.373 1.587h-.005ZM119.013 13.144a2.57 2.57 0 0 0 2.53-3.068 2.57 2.57 0 0 0-3.502-1.883 2.569 2.569 0 0 0-1.594 2.372v.009a2.57 2.57 0 0 0 2.566 2.57ZM148.124 15.226h-2.885V9.511h-4.141v5.715h-2.76v3.488h2.76v11.173h4.139V18.715h2.885l.002-3.489ZM19.024 0l3.974 23.716H0L19.024 0Z"
        fill="#0033A1"/>
    <path d="m18.977 0 14.086 23.716H22.95L18.977 0Z" fill="#CC27B0"/>
    <path d="M0 23.734h22.999l1.437 8.572L0 23.734Z" fill="#0071CE"/>
    <path d="M22.945 23.734h10.112l-8.674 8.572-1.438-8.572Z" fill="#E17FD2"/>
    <path
        d="M149.223 27.091c.24.14.436.342.569.585.14.256.211.544.207.836.004.29-.067.577-.207.832-.134.241-.33.442-.569.58-.25.144-.535.217-.823.212a1.624 1.624 0 0 1-.828-.212 1.514 1.514 0 0 1-.572-.58 1.677 1.677 0 0 1-.207-.832c-.004-.292.067-.58.207-.836.133-.244.331-.446.572-.584.252-.144.538-.216.828-.212.288-.005.573.068.823.212Zm.122 2.395a1.489 1.489 0 0 0 0-1.948 1.37 1.37 0 0 0-1.899 0 1.494 1.494 0 0 0 0 1.948 1.372 1.372 0 0 0 1.896 0h.003Zm-.352-.992a.539.539 0 0 1-.317.174l.488.695-.414.008-.451-.695h-.186v.695h-.349v-1.75h.755a.613.613 0 0 1 .425.142.49.49 0 0 1 .159.386.5.5 0 0 1-.109.337l-.001.008Zm-.876-.1h.381a.295.295 0 0 0 .186-.056.204.204 0 0 0 .074-.17.196.196 0 0 0-.074-.168.31.31 0 0 0-.186-.052h-.381v.446Z"
        fill="#0033A1"/>
</svg>