<svg xmlns="http://www.w3.org/2000/svg" fill="none" viewBox="0 0 151 31">
    <path fill="#fff"
          d="M42.354 15.421c-1.65-.468-2.5-1.278-2.5-2.406 0-1.391 1.27-2.375 3.014-2.375 1.803 0 2.945.96 3.012 2.506h4.4c-.072-3.898-3.013-6.515-7.36-6.515-4.346 0-7.5 2.734-7.5 6.505 0 2.99 1.895 5.086 5.627 6.25l2.698.752c1.997.573 2.825 1.356 2.777 2.67-.03 1.515-1.352 2.506-3.4 2.506-2.223 0-3.334-1.323-3.456-2.679h-4.448c.08 3.898 3.306 6.577 7.907 6.577 3.721 0 7.779-2.001 7.843-6.376.091-3.184-1.92-5.401-5.99-6.574l-2.624-.84ZM59.66 13.748a7.676 7.676 0 0 0-5.301 2.325 7.71 7.71 0 0 0 0 10.746 7.677 7.677 0 0 0 5.3 2.326c1.234 0 3.385-.599 4.257-1.935l.278-.423v2.057h4.15V14.068h-4.137v2.001l-.277-.393c-1.314-1.873-3.974-1.928-4.27-1.928Zm.444 11.435c-1.887 0-3.92-1.428-3.92-3.73 0-2.301 2.03-3.73 3.92-3.73 1.889 0 3.79 1.309 3.79 3.73 0 2.422-1.956 3.73-3.79 3.73ZM74.974 14.07h-4.149v14.788h4.149V14.07ZM81.653 6.92h-4.168v21.933h4.168V6.92ZM93.007 6.898h-8.969v21.954h4.448v-7.684h4.531c5.28 0 7.165-3.835 7.165-7.125-.01-4.931-3.608-7.145-7.175-7.145Zm-.228 10.435h-4.303V10.76h4.448c1.945 0 2.825 1.918 2.825 3.28 0 1.626-1.11 3.293-2.955 3.293h-.015ZM107.548 13.748c-4.432 0-7.65 3.223-7.65 7.668s3.202 7.7 7.65 7.7 7.667-3.238 7.667-7.698c0-4.46-3.219-7.67-7.667-7.67Zm0 11.275a3.584 3.584 0 0 1-3.324-2.195 3.593 3.593 0 0 1 .749-3.918 3.585 3.585 0 0 1 3.899-.807 3.594 3.594 0 0 1 2.237 3.3 3.468 3.468 0 0 1-.907 2.497 3.474 3.474 0 0 1-2.404 1.123h-.25ZM120.952 14.07h-4.151v14.788h4.151V14.07ZM127.853 16.186l-.277.53v-2.648h-4.19V28.85h4.167v-7.83c0-2.105 1.017-3.218 2.92-3.218 1.715 0 2.759 1.208 2.759 3.146v7.895h4.18v-8.86c.019-4.023-1.884-6.25-5.34-6.25a4.845 4.845 0 0 0-4.22 2.447l.001.006ZM72.898 11.968a2.585 2.585 0 0 0 2.396-1.597 2.6 2.6 0 0 0-.554-2.83 2.588 2.588 0 0 0-4.425 1.826v.01a2.593 2.593 0 0 0 2.588 2.592h-.005ZM118.871 11.968a2.591 2.591 0 0 0 2.547-3.096 2.595 2.595 0 0 0-2.03-2.044 2.586 2.586 0 0 0-2.661 1.098 2.595 2.595 0 0 0-.44 1.441v.01c-.002.34.064.676.194.99a2.596 2.596 0 0 0 2.39 1.6ZM148.235 14.06h-2.904V8.292h-4.168v5.766h-2.778v3.52h2.778v11.273h4.168V17.58h2.904v-3.52ZM20.636 17.661 17.683 0 0 22.09h21.376l-.74-4.429ZM20.608 10.895 22.48 22.09h8.762L19.037 1.494l1.571 9.4ZM2.063 23.182l20.714 7.28-1.218-7.28H2.063ZM23.831 30.156l7.042-6.974h-8.209l1.167 6.974ZM149.338 26.024c.241.14.439.344.572.59.141.258.213.548.209.842.004.293-.068.582-.209.84a1.533 1.533 0 0 1-.572.585 1.608 1.608 0 0 1-.829.213 1.632 1.632 0 0 1-.833-.213 1.523 1.523 0 0 1-.576-.586 1.683 1.683 0 0 1-.208-.839 1.701 1.701 0 0 1 .208-.843c.134-.246.333-.45.576-.59.254-.144.542-.217.833-.212.291-.005.577.068.829.213Zm.123 2.415a1.512 1.512 0 0 0 0-1.965 1.382 1.382 0 0 0-1.912 0 1.511 1.511 0 0 0 0 1.965 1.38 1.38 0 0 0 1.912 0Zm-.355-1a.547.547 0 0 1-.319.176l.49.704-.416.008-.454-.696h-.188v.696h-.351v-1.765h.759a.618.618 0 0 1 .429.143.508.508 0 0 1 .16.39.513.513 0 0 1-.11.339v.004Zm-.883-.103h.384a.295.295 0 0 0 .188-.057.208.208 0 0 0 .074-.172.2.2 0 0 0-.074-.168.312.312 0 0 0-.188-.053h-.384v.45Z"/>
</svg>